<?xml version="1.0" encoding="UTF-8" standalone="no"?>
<!-- Created with Inkscape (http://www.inkscape.org/) -->

<svg
   xmlns:dc="http://purl.org/dc/elements/1.1/"
   xmlns:cc="http://creativecommons.org/ns#"
   xmlns:rdf="http://www.w3.org/1999/02/22-rdf-syntax-ns#"
   xmlns:svg="http://www.w3.org/2000/svg"
   xmlns="http://www.w3.org/2000/svg"
   xmlns:sodipodi="http://sodipodi.sourceforge.net/DTD/sodipodi-0.dtd"
   xmlns:inkscape="http://www.inkscape.org/namespaces/inkscape"
   version="1.1"
   id="svg2"
   xml:space="preserve"
   width="1037.3333"
   height="290"
   viewBox="0 0 1037.3333 290"
   sodipodi:docname="ID_Lab_Logo.svg"
   inkscape:version="0.92.3 (2405546, 2018-03-11)"><metadata
     id="metadata8"><rdf:RDF><cc:Work
         rdf:about=""><dc:format>image/svg+xml</dc:format><dc:type
           rdf:resource="http://purl.org/dc/dcmitype/StillImage" /><dc:title></dc:title></cc:Work></rdf:RDF></metadata><defs
     id="defs6" /><sodipodi:namedview
     pagecolor="#ffffff"
     bordercolor="#666666"
     borderopacity="1"
     objecttolerance="10"
     gridtolerance="10"
     guidetolerance="10"
     inkscape:pageopacity="0"
     inkscape:pageshadow="2"
     inkscape:window-width="1853"
     inkscape:window-height="1025"
     id="namedview4"
     showgrid="false"
     inkscape:zoom="0.65938308"
     inkscape:cx="497.23249"
     inkscape:cy="262.12718"
     inkscape:window-x="1747"
     inkscape:window-y="27"
     inkscape:window-maximized="1"
     inkscape:current-layer="g10" /><g
     id="g10"
     inkscape:groupmode="layer"
     inkscape:label="ID_Lab_Logo"
     transform="matrix(1.3333333,0,0,-1.3333333,0,289.99999)"><g
       id="g201" /><path
       d="m 631.06499,214.1337 h 23.216 v -87.382 c 1.288,3.104 16.499,26.528 57.994,26.528 37.684,0 70.154,-24.373 70.154,-77.791006 0,-66.3527997 -53.328,-75.05629967 -70.049,-75.05629967 -40.782,0 -58.099,28.21729967 -58.099,28.21729967 V 0.43239433 h -23.216 z m 22.646,-136.078006 c 0,22.917996 12.37,36.643006 17.676,41.948006 5.305,5.306 19.616,12.973 40.888,12.973 21.272,0 48.577,-10.832 48.577,-57.488006 0,-42.599 -30.269,-52.604 -48.577,-52.604 -33.479,0 -45.035,17.328 -48.602,21.622 -3.341,4.022 -9.962,10.632 -9.962,33.549 z"
       style="fill:#353535;fill-opacity:1;fill-rule:evenodd;stroke:none"
       id="path30"
       inkscape:connector-curvature="0" /><path
       d="m 460.88299,134.8427 c 0,0 4.03,1.715 18.511,7.948 4.785,2.06 19.8,8.677 35.562,10.46 16.885,1.91 27.134,-0.505 34.211,-2.645 4.982,-1.506 15.767,-7.339 22.57,-16.446 6.468,-8.657 9.088,-20.398 9.088,-29.487 V 0.17979433 h -21.541 V 20.850694 c 0,0 -11.737,-11.2703997 -24.953,-16.1108997 -13.217,-4.84049996 -29.947,-6.6559 -43.145,-3.109 -13.198,3.547 -19.541,7.8499 -24.465,12.7738997 -4.924,4.924 -11.877,18.069 -12.275,27.13 -0.397,9.06 -0.153,22.273 6.445,30.956 2.577,3.393 5.601,6.832 9.474,9.324 4.442,2.858 9.944,4.583 16.204,5.495 7.126,1.072 59.062,1.415 70.493,1.478 0.582,0.004 1.138,0.244 1.539,0.666 0.401,0.421 0.614,0.988 0.589,1.569 -0.103,2.744 -0.254,7.774 -0.254,13.650006 0,8.91 -2.042,20.154 -13.566,26.137 -12.137,6.302 -33.856,1.462 -36.681,0.769 -19.511,-4.788 -37.637,-16.006 -37.637,-16.006 z m 25.919,-64.329006 h 72.482 v -18.564 c 0,-6.188 -10.616,-16.342 -20.267,-23.215 -2.851,-2.031 -14.885,-10.388 -27.412,-10.965 -5.51,-0.254 -20.902,1.036 -29.061,6.598 -9.104,6.206 -10.737,16.956 -11.032,20.934 -0.076,1.022 -1.083,7.241 0.839,12.573 1.102,3.057 2.58,7.327 5.806,10.021 2.468,2.062 6.433,2.618 8.645,2.618 z"
       style="fill:#353535;fill-opacity:1;fill-rule:evenodd;stroke:none"
       id="path32"
       inkscape:connector-curvature="0" /><path
       d="m 319.75899,202.1927 h 23.589 V 22.726694 h 87.549 V 0.80139433 h -111.138 z"
       style="fill:#353535;fill-opacity:1;fill-rule:evenodd;stroke:none"
       id="path34"
       inkscape:connector-curvature="0" /><path
       d="m 95.926188,161.7937 39.084802,40.907 h 59.845 c 38.236,0 85.78,-18.775 85.78,-100.692 0,-81.916006 -47.288,-99.7050057 -85.78,-99.7050057 H 95.926188 Z m 32.340802,9.573 V 31.476694 h 66.589 c 24.47,0 57.165,15.502 57.165,70.532006 0,55.031 -31.691,69.358 -57.165,69.358 z"
       style="fill:#353535;fill-opacity:1;fill-rule:evenodd;stroke:none"
       id="path36"
       inkscape:connector-curvature="0" /><path
       d="m 8.2324879,202.7307 v -37.145 l 34.6956001,37.145 z"
       style="fill:#4c82a0;fill-opacity:1;fill-rule:evenodd;stroke:none"
       id="path38"
       inkscape:connector-curvature="0" /><path
       d="M 8.1250879,0.76629433 H 42.794188 V 197.2397 L 8.1250879,160.4417 Z"
       style="fill:#353535;fill-opacity:1;fill-rule:evenodd;stroke:none"
       id="path40"
       inkscape:connector-curvature="0" /><path
       d="m 95.238488,202.7307 v -37.145 l 34.695502,37.145 z"
       style="fill:#4c82a0;fill-opacity:1;fill-rule:evenodd;stroke:none"
       id="path42"
       inkscape:connector-curvature="0" /></g></svg>