<?xml version="1.0" encoding="UTF-8" standalone="no"?>
<!DOCTYPE svg PUBLIC "-//W3C//DTD SVG 1.1//EN" "http://www.w3.org/Graphics/SVG/1.1/DTD/svg11.dtd">
<svg width="100%" height="100%" viewBox="0 0 778 298" version="1.1" xmlns="http://www.w3.org/2000/svg" xmlns:xlink="http://www.w3.org/1999/xlink" xml:space="preserve" xmlns:serif="http://www.serif.com/" style="fill-rule:evenodd;clip-rule:evenodd;stroke-linejoin:round;stroke-miterlimit:2;">
    <g transform="matrix(1,0,0,1,-11,-11)">
        <g id="Logo-ID-Lab" serif:id="Logo ID Lab">
            <text x="456.646px" y="305.933px" style="font-family:'ArialMT', 'Arial', sans-serif;font-size:52.996px;fill:rgb(53,53,53);">D<tspan x="507.638px 551.772px 592.93px 638.073px 665.516px 707.709px 755.777px " y="305.933px 305.933px 305.933px 305.933px 305.933px 305.933px 305.933px ">ATA LAB</tspan></text>
            <g transform="matrix(1,0,0,1,2.83666,0)">
                <text x="376.263px" y="307.222px" style="font-family:'ArialMT', 'Arial', sans-serif;font-size:52.996px;fill:rgb(53,53,53);">&amp;</text>
            </g>
            <text x="9.843px" y="306.168px" style="font-family:'ArialMT', 'Arial', sans-serif;font-size:52.996px;fill:rgb(53,53,53);">I<tspan x="33.789px 81.282px 122.876px 167.446px 214.939px 262.433px 307.002px " y="306.168px 306.168px 306.168px 306.168px 306.168px 306.168px 306.168px ">NTERNET</tspan></text>
            <path d="M634.103,11.109L657.319,11.109L657.319,98.491C658.607,95.387 673.818,71.963 715.313,71.963C752.997,71.963 785.467,96.336 785.467,149.754C785.467,216.107 732.139,224.81 715.418,224.81C674.636,224.81 657.319,196.593 657.319,196.593L657.319,224.81L634.103,224.81L634.103,11.109ZM656.749,147.187C656.749,124.269 669.119,110.544 674.425,105.239C679.73,99.933 694.041,92.266 715.313,92.266C736.585,92.266 763.89,103.098 763.89,149.754C763.89,192.353 733.621,202.358 715.313,202.358C681.834,202.358 670.278,185.03 666.711,180.736C663.37,176.714 656.749,170.104 656.749,147.187Z" style="fill:rgb(53,53,53);"/>
            <path d="M463.921,90.4C463.921,90.4 467.951,88.685 482.432,82.452C487.217,80.392 502.232,73.775 517.994,71.992C534.879,70.082 545.128,72.497 552.205,74.637C557.187,76.143 567.972,81.976 574.775,91.083C581.243,99.74 583.863,111.481 583.863,120.57L583.863,225.063L562.322,225.063L562.322,204.392C562.322,204.392 550.585,215.662 537.369,220.503C524.152,225.343 507.422,227.159 494.224,223.612C481.026,220.065 474.683,215.762 469.759,210.838C464.835,205.914 457.882,192.769 457.484,183.708C457.087,174.648 457.331,161.435 463.929,152.752C466.506,149.359 469.53,145.92 473.403,143.428C477.845,140.57 483.347,138.845 489.607,137.933C496.733,136.861 548.669,136.518 560.1,136.455C560.682,136.451 561.238,136.211 561.639,135.789C562.04,135.368 562.253,134.801 562.228,134.22C562.125,131.476 561.974,126.446 561.974,120.57C561.974,111.66 559.932,100.416 548.408,94.433C536.271,88.131 514.552,92.971 511.727,93.664C492.216,98.452 474.09,109.67 474.09,109.67L463.921,90.4ZM489.84,154.729L562.322,154.729L562.322,173.293C562.322,179.481 551.706,189.635 542.055,196.508C539.204,198.539 527.17,206.896 514.643,207.473C509.133,207.727 493.741,206.437 485.582,200.875C476.478,194.669 474.845,183.919 474.55,179.941C474.474,178.919 473.467,172.7 475.389,167.368C476.491,164.311 477.969,160.041 481.195,157.347C483.663,155.285 487.628,154.729 489.84,154.729Z" style="fill:rgb(53,53,53);"/>
            <path d="M322.797,23.05L346.386,23.05L346.386,202.516L433.935,202.516L433.935,224.441L322.797,224.441L322.797,23.05Z" style="fill:rgb(53,53,53);"/>
            <path d="M98.964,63.449L138.049,22.542L197.894,22.542C236.13,22.542 283.674,41.317 283.674,123.234C283.674,205.15 236.386,222.939 197.894,222.939L98.964,222.939L98.964,63.449ZM131.305,53.876L131.305,193.766L197.894,193.766C222.364,193.766 255.059,178.264 255.059,123.234C255.059,68.203 223.368,53.876 197.894,53.876L131.305,53.876Z" style="fill:rgb(53,53,53);"/>
            <path d="M11.27,22.512L11.27,59.657L45.966,22.512L11.27,22.512Z" style="fill:rgb(76,130,160);"/>
            <path d="M11.163,224.476L45.832,224.476L45.832,28.003L11.163,64.801L11.163,224.476Z" style="fill:rgb(53,53,53);"/>
            <g transform="matrix(1,0,0,1,87.006,0)">
                <path d="M11.27,22.512L11.27,59.657L45.966,22.512L11.27,22.512Z" style="fill:rgb(76,130,160);"/>
            </g>
        </g>
    </g>
</svg>
