<?xml version="1.0" encoding="utf-8"?>
<!-- Generator: Adobe Illustrator 20.1.0, SVG Export Plug-In . SVG Version: 6.00 Build 0)  -->
<svg version="1.1" id="Layer_1" xmlns="http://www.w3.org/2000/svg" xmlns:xlink="http://www.w3.org/1999/xlink" x="0px" y="0px"
	 viewBox="0 0 373 112.4" style="enable-background:new 0 0 373 112.4;" xml:space="preserve">
<style type="text/css">
	.st0{fill:#3F98BD;}
	.st1{fill:#3C3C3B;}
</style>
<g>
	<path class="st0" d="M16.9,0H3.1C1.3,0,0,1.3,0,3.1v13.8C0,18.7,1.3,20,3.1,20h13.8c1.8,0,3.1-1.3,3.1-3.1V3.1
		C19.9,1.3,18.7,0,16.9,0z"/>
	<path class="st1" d="M266.1,28.2c-24.6,0-36,13.1-36,41.6c0,29.2,12.2,41.2,40.3,41.2c8.1,0,15.3-1,22.2-2.5c1.3-0.3,2.1-1.5,2.1-3
		V94.7c0-2-1.2-2.6-3-2.3c-7.6,1.3-12.6,2.1-20,2.1c-14.5,0-21-3.6-22-17.9h47.5c2.3,0,3.3-1,3.3-3.3V73
		C300.5,41.3,290.4,28.2,266.1,28.2z M249.7,63.3c0.7-14.1,5.8-18.9,16.6-18.9c10.4,0,14.9,4.8,15.8,18.9H249.7z"/>
	<path class="st1" d="M91.3,93.6c-1.2,0.2-3.3,0.5-5.8,0.5c-6.2,0-8.5-2-8.5-12.8V32.8c0-1.6-1-2.6-2.6-2.6H60.6
		c-1.6,0-2.6,1-2.6,2.6v50.9c0,20,7.1,26.5,23.5,26.5c4.6,0,8.5-0.5,10.2-0.8c2-0.3,2.5-1.6,2.5-3V95.7
		C94.1,93.9,93.1,93.2,91.3,93.6z"/>
	<path class="st1" d="M191.8,30.1c-4.6,0-8.5,0.5-10.2,0.8c-2,0.3-2.5,1.6-2.5,3v10.7c0,1.8,1,2.5,2.8,2.1c1.2-0.2,3.3-0.5,5.8-0.5
		c6.2,0,8.5,2,8.5,12.8v48.5c0,1.6,1,2.6,2.6,2.6h13.8c1.6,0,2.6-1,2.6-2.6V56.6C215.3,36.6,208.2,30.1,191.8,30.1z"/>
	<path class="st1" d="M148.5,30.1c-4.6,0-8.5,0.5-10.2,0.8c-2,0.3-2.5,1.6-2.5,3v10.7c0,1.8,1,2.5,2.8,2.1c1.2-0.2,3.3-0.5,5.8-0.5
		c6.2,0,8.5,2,8.5,12.8v48.5c0,1.6,1,2.6,2.6,2.6h13.8c1.6,0,2.6-1,2.6-2.6V56.6C172,36.6,164.9,30.1,148.5,30.1z"/>
	<path class="st1" d="M105.6,30.1c-4.6,0-8.5,0.5-10.2,0.8c-2,0.3-2.5,1.6-2.5,3v10.7c0,1.8,1,2.5,2.8,2.1c1.2-0.2,3.3-0.5,5.8-0.5
		c6.2,0,8.5,2,8.5,12.8v48.5c0,1.6,1,2.6,2.6,2.6h13.8c1.6,0,2.6-1,2.6-2.6V56.6C129.1,36.6,122,30.1,105.6,30.1z"/>
	<path class="st1" d="M369.8,94.6c-5.5,0.7-9,1-13.2,1c-16.3,0-21.3-4.7-21.3-25.2s5.2-25.2,21.2-25.2c4.2,0,7.8,0.3,13.3,1
		c1.8,0.2,3-0.3,3-2.5l0.2-10.5c0-1.5-0.8-2.7-2.3-3c-5.2-1.2-11.2-1.8-17.5-1.8c-26.8,0-37.7,12.2-37.7,42s10.8,42,37.7,42
		c6.5,0,12.3-0.7,17.5-1.8c1.5-0.3,2.3-1.5,2.3-3V97.1C372.9,94.9,371.6,94.4,369.8,94.6z"/>
</g>
</svg>
