<?xml version="1.0" encoding="UTF-8" standalone="no"?><!DOCTYPE svg PUBLIC "-//W3C//DTD SVG 1.1//EN" "http://www.w3.org/Graphics/SVG/1.1/DTD/svg11.dtd"><svg width="100%" height="100%" viewBox="0 0 2900 530" version="1.1" xmlns="http://www.w3.org/2000/svg" xmlns:xlink="http://www.w3.org/1999/xlink" xml:space="preserve" xmlns:serif="http://www.serif.com/" style="fill-rule:evenodd;clip-rule:evenodd;stroke-linejoin:round;stroke-miterlimit:2;"><g><g id="Logo-ID-Lab" serif:id="Logo ID Lab"><g transform="matrix(1.76612,0,0,1.76612,1522.35,1.71687)"><text x="445.646px" y="294.933px" style="font-family:'ArialMT', 'Arial', sans-serif;font-size:52.996px;fill:#353535;">D</text><text x="496.639px" y="294.933px" style="font-family:'ArialMT', 'Arial', sans-serif;font-size:52.996px;fill:#353535;">A</text><text x="540.775px" y="294.933px" style="font-family:'ArialMT', 'Arial', sans-serif;font-size:52.996px;fill:#353535;">T</text><text x="581.932px" y="294.933px" style="font-family:'ArialMT', 'Arial', sans-serif;font-size:52.996px;fill:#353535;">A <tspan x="654.516px " y="294.933px ">L</tspan></text><text x="696.712px" y="294.933px" style="font-family:'ArialMT', 'Arial', sans-serif;font-size:52.996px;fill:#353535;">A</text><text x="744.779px" y="294.933px" style="font-family:'ArialMT', 'Arial', sans-serif;font-size:52.996px;fill:#353535;">B</text></g><text x="2172.46px" y="524.88px" style="font-family:'ArialMT', 'Arial', sans-serif;font-size:93.598px;fill:#353535;">&amp;</text><g transform="matrix(1.76612,0,0,1.76612,1522.35,1.71687)"><text x="-1.157px" y="295.168px" style="font-family:'ArialMT', 'Arial', sans-serif;font-size:52.996px;fill:#353535;">I</text><text x="22.787px" y="295.168px" style="font-family:'ArialMT', 'Arial', sans-serif;font-size:52.996px;fill:#353535;">N</text><text x="70.283px" y="295.168px" style="font-family:'ArialMT', 'Arial', sans-serif;font-size:52.996px;fill:#353535;">T</text><text x="111.874px" y="295.168px" style="font-family:'ArialMT', 'Arial', sans-serif;font-size:52.996px;fill:#353535;">E</text><text x="156.444px" y="295.168px" style="font-family:'ArialMT', 'Arial', sans-serif;font-size:52.996px;fill:#353535;">R</text><text x="203.939px" y="295.168px" style="font-family:'ArialMT', 'Arial', sans-serif;font-size:52.996px;fill:#353535;">N</text><text x="251.435px" y="295.168px" style="font-family:'ArialMT', 'Arial', sans-serif;font-size:52.996px;fill:#353535;">E</text><text x="296.005px" y="295.168px" style="font-family:'ArialMT', 'Arial', sans-serif;font-size:52.996px;fill:#353535;">T</text></g><path d="M2622.83,1.909l41.002,0l0,154.327c2.275,-5.482 29.14,-46.851 102.425,-46.851c66.554,-0 123.9,43.045 123.9,137.388c-0,117.186 -94.184,132.558 -123.715,132.558c-72.026,-0 -102.61,-49.835 -102.61,-49.835l0,49.835l-41.002,-0l0,-377.422Zm39.996,240.33c-0,-40.476 21.847,-64.716 31.218,-74.085c9.369,-9.371 34.644,-22.912 72.213,-22.912c37.568,0 85.792,19.131 85.792,101.531c0,75.234 -53.458,92.904 -85.792,92.904c-59.128,0 -79.537,-30.603 -85.837,-38.187c-5.901,-7.103 -17.594,-18.777 -17.594,-59.251Z" style="fill:#353535;"/><path d="M2322.27,141.947c0,-0 7.118,-3.029 32.693,-14.038c8.451,-3.638 34.969,-15.324 62.806,-18.473c29.821,-3.373 47.922,0.892 60.421,4.671c8.799,2.66 27.846,12.962 39.861,29.046c11.423,15.289 16.051,36.025 16.051,52.077l-0,184.547l-38.044,-0l-0,-36.507c-0,-0 -20.729,19.904 -44.07,28.453c-23.343,8.549 -52.89,11.755 -76.199,5.491c-23.31,-6.264 -34.512,-13.864 -43.208,-22.56c-8.697,-8.696 -20.977,-31.912 -21.679,-47.915c-0.702,-16.001 -0.271,-39.336 11.382,-54.672c4.551,-5.992 9.892,-12.066 16.732,-16.467c7.845,-5.047 17.563,-8.094 28.619,-9.705c12.585,-1.893 104.31,-2.499 124.498,-2.61c1.028,-0.007 2.01,-0.431 2.718,-1.176c0.709,-0.744 1.085,-1.745 1.041,-2.771c-0.182,-4.846 -0.449,-13.73 -0.449,-24.108c0,-15.736 -3.606,-35.594 -23.959,-46.161c-21.435,-11.13 -59.794,-2.582 -64.783,-1.358c-34.459,8.456 -66.471,28.269 -66.471,28.269l-17.96,-34.033Zm45.776,113.612l128.012,0l-0,32.786c-0,10.929 -18.749,28.862 -35.794,41.001c-5.035,3.587 -26.289,18.346 -48.413,19.365c-9.731,0.449 -36.915,-1.83 -51.325,-11.653c-16.079,-10.96 -18.963,-29.946 -19.484,-36.972c-0.134,-1.805 -1.913,-12.788 1.482,-22.205c1.946,-5.399 4.556,-12.94 10.254,-17.698c4.359,-3.642 11.361,-4.624 15.268,-4.624Z" style="fill:#353535;"/><path d="M2073.03,22.999l41.661,-0l-0,316.957l154.621,0l0,38.723l-196.282,0l-0,-355.68Z" style="fill:#353535;"/><path d="M1677.71,94.348l69.028,-72.247l105.693,0c67.53,0 151.498,33.159 151.498,177.834c-0,144.673 -83.516,176.091 -151.498,176.091l-174.721,-0l-0,-281.678Zm57.117,-16.907l0,247.062l117.604,-0c43.217,-0 100.96,-27.378 100.96,-124.568c0,-97.191 -55.97,-122.494 -100.96,-122.494l-117.604,-0Z" style="fill:#353535;"/><path d="M1522.83,22.048l-0,65.603l61.276,-65.603l-61.276,0Z" style="fill:#4c82a0;"/><path d="M1522.64,378.741l61.23,0l-0,-346.995l-61.23,64.99l-0,282.005Z" style="fill:#353535;"/><path d="M1676.5,22.048l0,65.603l61.277,-65.603l-61.277,0Z" style="fill:#4c82a0;"/></g><clipPath id="_clip1"><rect x="0.132" y="31.131" width="1165.62" height="351.25"/></clipPath><g clip-path="url(#_clip1)"><path d="M52.949,31.131l-43.133,-0c-5.613,-0 -9.684,4.071 -9.684,9.683l0,43.134c0,5.612 4.071,9.683 9.684,9.683l43.133,-0c5.612,-0 9.683,-4.071 9.683,-9.683l0,-43.134c-0.308,-5.612 -4.071,-9.683 -9.683,-9.683Z" style="fill:#3f98bd;fill-rule:nonzero;"/><path d="M831.691,119.248c-76.871,-0 -112.5,40.954 -112.5,130.016c-0,91.242 38.137,128.742 125.945,128.742c25.309,-0 47.8,-3.125 69.367,-7.813c4.071,-0.945 6.558,-4.687 6.558,-9.375l0,-33.758c0,-6.25 -3.741,-8.121 -9.375,-7.175c-23.745,4.05 -39.37,6.558 -62.5,6.558c-45.312,0 -65.625,-11.245 -68.75,-55.941l148.438,-0c7.196,-0 10.321,-3.125 10.321,-10.3l-0,-0.946c-0,-99.054 -31.559,-140.008 -107.504,-140.008Zm-51.255,109.704c2.2,-44.079 18.134,-59.067 51.892,-59.067c32.483,0 46.546,14.988 49.363,59.067l-101.255,-0Z" style="fill:#3c3c3b;fill-rule:nonzero;"/><path d="M285.453,323.627c-3.762,0.637 -10.321,1.562 -18.133,1.562c-19.367,0 -26.563,-6.25 -26.563,-39.987l0,-151.563c0,-5.016 -3.125,-8.141 -8.121,-8.141l-43.133,-0c-4.996,-0 -8.121,3.125 -8.121,8.141l0,159.046c0,62.5 22.184,82.813 73.438,82.813c14.371,-0 26.562,-1.563 31.866,-2.488c6.25,-0.946 7.813,-4.996 7.813,-9.375l-0,-33.45c-0.308,-5.612 -3.433,-7.812 -9.046,-6.558Z" style="fill:#3c3c3b;fill-rule:nonzero;"/><path d="M599.516,125.189c-14.392,0 -26.563,1.563 -31.888,2.509c-6.25,0.925 -7.812,4.995 -7.812,9.375l-0,33.429c-0,5.633 3.125,7.812 8.758,6.558c3.742,-0.617 10.3,-1.562 18.112,-1.562c19.388,-0 26.563,6.25 26.563,40.008l-0,151.562c-0,4.996 3.125,8.121 8.142,8.121l43.112,0c4.996,0 8.121,-3.125 8.121,-8.121l-0,-159.066c0.329,-62.5 -21.875,-82.813 -73.108,-82.813Z" style="fill:#3c3c3b;fill-rule:nonzero;"/><path d="M464.195,125.189c-14.371,0 -26.563,1.563 -31.867,2.509c-6.25,0.925 -7.812,4.995 -7.812,9.375l-0,33.429c-0,5.633 3.125,7.812 8.737,6.558c3.763,-0.617 10.321,-1.562 18.133,-1.562c19.367,-0 26.563,6.25 26.563,40.008l-0,151.562c-0,4.996 3.125,8.121 8.121,8.121l43.133,0c4.996,0 8.121,-3.125 8.121,-8.121l-0,-159.066c0.308,-62.5 -21.875,-82.813 -73.129,-82.813Z" style="fill:#3c3c3b;fill-rule:nonzero;"/><path d="M330.128,125.189c-14.371,0 -26.562,1.563 -31.867,2.509c-6.25,0.925 -7.812,4.995 -7.812,9.375l-0,33.429c-0,5.633 3.125,7.812 8.737,6.558c3.763,-0.617 10.321,-1.562 18.134,-1.562c19.366,-0 26.562,6.25 26.562,40.008l0,151.562c0,4.996 3.125,8.121 8.121,8.121l43.133,0c4.996,0 8.121,-3.125 8.121,-8.121l0,-159.066c0.309,-62.5 -21.875,-82.813 -73.129,-82.813Z" style="fill:#3c3c3b;fill-rule:nonzero;"/><path d="M1155.77,326.752c-17.188,2.2 -28.125,3.125 -41.263,3.125c-50.925,-0 -66.55,-14.679 -66.55,-78.742c0,-64.062 16.242,-78.762 66.242,-78.762c13.116,-0 24.383,0.945 41.571,3.125c5.612,0.637 9.375,-0.925 9.375,-7.813l0.616,-32.812c0,-4.688 -2.508,-8.43 -7.196,-9.375c-16.241,-3.742 -34.991,-5.613 -54.687,-5.613c-83.738,0 -117.804,38.117 -117.804,131.25c-0,93.113 33.758,131.25 117.804,131.25c20.312,0 38.446,-2.2 54.687,-5.633c4.688,-0.925 7.196,-4.688 7.196,-9.375l0,-32.813c-0.308,-6.866 -4.379,-8.429 -9.991,-7.812Z" style="fill:#3c3c3b;fill-rule:nonzero;"/></g></g></svg>
