<?xml version="1.0" encoding="UTF-8" standalone="no"?><!DOCTYPE svg PUBLIC "-//W3C//DTD SVG 1.1//EN" "http://www.w3.org/Graphics/SVG/1.1/DTD/svg11.dtd"><svg width="100%" height="100%" viewBox="0 0 3746 684" version="1.1" xmlns="http://www.w3.org/2000/svg" xmlns:xlink="http://www.w3.org/1999/xlink" xml:space="preserve" xmlns:serif="http://www.serif.com/" style="fill-rule:evenodd;clip-rule:evenodd;stroke-linejoin:round;stroke-miterlimit:2;"><g><path d="M73.552,30.32l-57.5,0c-7.5,0 -12.917,5.417 -12.917,12.917l0,57.5c0,7.5 5.417,12.917 12.917,12.917l57.5,-0c7.5,-0 12.917,-5.417 12.917,-12.917l-0,-57.5c-0.417,-7.5 -5.417,-12.917 -12.917,-12.917Z" style="fill:#3f98bd;fill-rule:nonzero;"/><path d="M1111.88,147.82c-102.5,0 -150,54.584 -150,173.334c0,121.666 50.834,171.666 167.917,171.666c33.75,0 63.75,-4.166 92.5,-10.416c5.417,-1.25 8.75,-6.25 8.75,-12.5l-0,-45c-0,-8.334 -5,-10.834 -12.5,-9.584c-31.667,5.417 -52.5,8.75 -83.333,8.75c-60.417,0 -87.5,-15 -91.667,-74.583l197.917,0c9.583,0 13.75,-4.167 13.75,-13.75l-0,-1.25c-0,-132.083 -42.084,-186.667 -143.334,-186.667Zm-68.333,146.25c2.917,-58.75 24.167,-78.75 69.167,-78.75c43.333,0 62.083,20 65.833,78.75l-135,0Z" style="fill:#3c3c3b;fill-rule:nonzero;"/><path d="M383.552,420.32c-5,0.834 -13.75,2.084 -24.167,2.084c-25.833,-0 -35.416,-8.334 -35.416,-53.334l-0,-202.083c-0,-6.667 -4.167,-10.833 -10.834,-10.833l-57.5,-0c-6.666,-0 -10.833,4.166 -10.833,10.833l-0,212.083c-0,83.334 29.583,110.417 97.917,110.417c19.166,0 35.416,-2.083 42.5,-3.333c8.333,-1.25 10.416,-6.667 10.416,-12.5l0,-44.584c-0.416,-7.5 -4.583,-10.416 -12.083,-8.75Z" style="fill:#3c3c3b;fill-rule:nonzero;"/><path d="M802.302,155.737c-19.167,0 -35.417,2.083 -42.5,3.333c-8.333,1.25 -10.417,6.667 -10.417,12.5l0,44.584c0,7.5 4.167,10.416 11.667,8.75c5,-0.834 13.75,-2.084 24.167,-2.084c25.833,0 35.416,8.334 35.416,53.334l0,202.083c0,6.667 4.167,10.833 10.834,10.833l57.5,0c6.666,0 10.833,-4.166 10.833,-10.833l-0,-212.083c0.417,-83.334 -29.167,-110.417 -97.5,-110.417Z" style="fill:#3c3c3b;fill-rule:nonzero;"/><path d="M621.885,155.737c-19.166,0 -35.416,2.083 -42.5,3.333c-8.333,1.25 -10.416,6.667 -10.416,12.5l-0,44.584c-0,7.5 4.166,10.416 11.666,8.75c5,-0.834 13.75,-2.084 24.167,-2.084c25.833,0 35.417,8.334 35.417,53.334l-0,202.083c-0,6.667 4.166,10.833 10.833,10.833l57.5,0c6.667,0 10.833,-4.166 10.833,-10.833l0,-212.083c0.417,-83.334 -29.166,-110.417 -97.5,-110.417Z" style="fill:#3c3c3b;fill-rule:nonzero;"/><path d="M443.135,155.737c-19.166,0 -35.416,2.083 -42.5,3.333c-8.333,1.25 -10.416,6.667 -10.416,12.5l-0,44.584c-0,7.5 4.166,10.416 11.666,8.75c5,-0.834 13.75,-2.084 24.167,-2.084c25.833,0 35.417,8.334 35.417,53.334l-0,202.083c-0,6.667 4.166,10.833 10.833,10.833l57.5,0c6.667,0 10.833,-4.166 10.833,-10.833l0,-212.083c0.417,-83.334 -29.166,-110.417 -97.5,-110.417Z" style="fill:#3c3c3b;fill-rule:nonzero;"/><path d="M1543.97,424.487c-22.917,2.917 -37.5,4.167 -55,4.167c-67.917,-0 -88.75,-19.584 -88.75,-105c-0,-85.417 21.666,-105 88.333,-105c17.5,-0 32.5,1.25 55.417,4.166c7.5,0.834 12.5,-1.25 12.5,-10.416l0.833,-43.75c-0,-6.25 -3.333,-11.25 -9.583,-12.5c-21.667,-5 -46.667,-7.5 -72.917,-7.5c-111.667,-0 -157.083,50.833 -157.083,175c-0,124.166 45,175 157.083,175c27.083,-0 51.25,-2.917 72.917,-7.5c6.25,-1.25 9.583,-6.25 9.583,-12.5l-0,-43.75c-0.417,-9.167 -5.833,-11.25 -13.333,-10.417Z" style="fill:#3c3c3b;fill-rule:nonzero;"/></g><g><g id="Logo-ID-Lab" serif:id="Logo ID Lab"><g><text x="2989.49px" y="677.084px" style="font-family:'ArialMT', 'Arial', sans-serif;font-size:121.051px;fill:#353535;">D</text><text x="3105.96px" y="677.084px" style="font-family:'ArialMT', 'Arial', sans-serif;font-size:121.051px;fill:#353535;">A<tspan x="3177.72px 3242.68px 3316.74px 3350.37px " y="677.084px 677.084px 677.084px 677.084px ">TA L</tspan>AB</text></g><g><text x="2812.36px" y="680.028px" style="font-family:'ArialMT', 'Arial', sans-serif;font-size:121.051px;fill:#353535;">&amp;</text></g><g><text x="1968.93px" y="677.621px" style="font-family:'ArialMT', 'Arial', sans-serif;font-size:121.051px;fill:#353535;">I</text><text x="2023.62px" y="677.621px" style="font-family:'ArialMT', 'Arial', sans-serif;font-size:121.051px;fill:#353535;">NTERNET</text></g><path d="M3394.83,3.663l53.029,0l-0,199.593c2.942,-7.09 37.686,-60.593 132.466,-60.593c86.076,-0 160.242,55.671 160.242,177.686c0,151.559 -121.809,171.438 -160.002,171.438c-93.152,0 -132.706,-64.451 -132.706,-64.451l-0,64.451l-53.029,0l-0,-488.124Zm51.727,310.822c-0,-52.348 28.255,-83.698 40.374,-95.815c12.118,-12.12 44.806,-29.632 93.394,-29.632c48.589,-0 110.957,24.741 110.957,131.311c0,97.302 -69.138,120.155 -110.957,120.155c-76.47,-0 -102.866,-39.58 -111.014,-49.388c-7.631,-9.187 -22.754,-24.285 -22.754,-76.631Z" style="fill:#353535;"/><path d="M3006.11,184.775c-0,0 9.205,-3.917 42.281,-18.154c10.93,-4.705 45.227,-19.819 81.229,-23.892c38.568,-4.363 61.978,1.153 78.143,6.041c11.38,3.44 36.014,16.764 51.553,37.565c14.774,19.774 20.759,46.592 20.759,67.353l-0,238.677l-49.203,0l-0,-47.215c-0,-0 -26.809,25.742 -56.996,36.8c-30.19,11.055 -68.404,15.203 -98.55,7.101c-30.146,-8.102 -44.634,-17.931 -55.882,-29.178c-11.247,-11.247 -27.128,-41.272 -28.037,-61.969c-0.907,-20.694 -0.35,-50.874 14.721,-70.708c5.886,-7.75 12.793,-15.605 21.64,-21.297c10.146,-6.528 22.713,-10.468 37.012,-12.551c16.277,-2.449 134.906,-3.232 161.016,-3.376c1.33,-0.009 2.6,-0.558 3.516,-1.522c0.916,-0.961 1.402,-2.256 1.345,-3.583c-0.235,-6.268 -0.58,-17.757 -0.58,-31.179c-0,-20.352 -4.664,-46.035 -30.987,-59.701c-27.722,-14.394 -77.332,-3.339 -83.785,-1.756c-44.565,10.936 -85.968,36.56 -85.968,36.56l-23.227,-44.016Zm59.202,146.937l165.56,0l-0,42.403c-0,14.134 -24.249,37.328 -46.293,53.026c-6.512,4.64 -33.999,23.728 -62.613,25.046c-12.586,0.58 -47.743,-2.366 -66.38,-15.071c-20.794,-14.175 -24.524,-38.73 -25.198,-47.816c-0.174,-2.334 -2.474,-16.539 1.916,-28.719c2.517,-6.982 5.893,-16.735 13.262,-22.889c5.637,-4.71 14.694,-5.98 19.746,-5.98Z" style="fill:#353535;"/><path d="M2683.76,30.938l53.881,0l-0,409.927l199.974,-0l0,50.079l-253.855,0l-0,-460.006Z" style="fill:#353535;"/><path d="M2172.49,123.215l89.276,-93.437l136.694,-0c87.337,-0 195.934,42.885 195.934,229.995c0,187.108 -108.012,227.741 -195.934,227.741l-225.97,-0l-0,-364.299Zm73.871,-21.866l0,319.529l152.099,0c55.893,0 130.574,-35.408 130.574,-161.105c-0,-125.699 -72.387,-158.424 -130.574,-158.424l-152.099,0Z" style="fill:#353535;"/><path d="M1972.19,29.709l0,84.845l79.251,-84.845l-79.251,0Z" style="fill:#4c82a0;"/><path d="M1971.94,491.024l79.189,0l-0,-448.772l-79.189,84.052l-0,364.72Z" style="fill:#353535;"/><g><path d="M2170.92,29.709l0,84.845l79.251,-84.845l-79.251,0Z" style="fill:#4c82a0;"/></g></g></g></svg>